<?xml version="1.0" standalone="no"?>
<!DOCTYPE svg PUBLIC "-//W3C//DTD SVG 20010904//EN"
 "http://www.w3.org/TR/2001/REC-SVG-20010904/DTD/svg10.dtd">
<svg version="1.0" xmlns="http://www.w3.org/2000/svg"
 width="300.000000pt" height="300.000000pt" viewBox="0 0 300.000000 300.000000"
 preserveAspectRatio="xMidYMid meet">
<metadata>
Created by potrace 1.11, written by Peter Selinger 2001-2013
</metadata>
<g transform="translate(0.000000,300.000000) scale(0.100000,-0.100000)"
fill="#000000" stroke="none">
<path d="M1325 2993 c-61 -7 -221 -36 -242 -44 -19 -7 -20 -12 -12 -50 35
-156 184 -299 340 -327 189 -35 382 60 467 230 41 84 50 133 25 146 -57 31
-444 61 -578 45z"/>
<path d="M2197 2812 c-23 -25 -66 -126 -73 -170 -11 -73 -10 -98 6 -173 60
-283 373 -423 631 -282 27 14 49 31 49 37 0 6 -21 43 -46 81 -120 180 -288
347 -475 473 -72 48 -78 50 -92 34z"/>
<path d="M694 2774 c-184 -123 -381 -326 -497 -510 -30 -48 -26 -53 55 -92
168 -78 365 -44 494 88 82 84 124 185 125 305 1 91 -60 255 -95 255 -7 0 -43
-21 -82 -46z"/>
<path d="M1431 2433 c-93 -47 -94 -190 -2 -238 117 -60 243 61 186 178 -33 67
-117 94 -184 60z"/>
<path d="M884 2209 c-99 -28 -129 -159 -53 -230 80 -75 209 -25 224 86 13 91
-80 169 -171 144z"/>
<path d="M2026 2210 c-74 -22 -119 -117 -85 -183 51 -99 177 -111 237 -23 71
105 -29 241 -152 206z"/>
<path d="M55 1927 c-15 -46 -30 -122 -45 -232 -8 -58 -5 -365 4 -415 5 -29 9
-50 26 -137 15 -73 18 -74 107 -43 180 63 300 245 287 433 -13 188 -142 344
-325 392 -38 10 -51 11 -54 2z"/>
<path d="M2881 1924 c-219 -59 -353 -267 -318 -494 24 -158 179 -318 333 -344
l42 -7 10 48 c29 131 34 170 39 323 5 148 2 194 -21 355 -5 31 -27 135 -29
134 -1 0 -26 -7 -56 -15z"/>
<path d="M609 1617 c-68 -46 -77 -148 -17 -206 87 -85 228 -25 228 97 0 45
-33 100 -70 119 -40 20 -103 16 -141 -10z"/>
<path d="M2232 1620 c-56 -34 -77 -112 -47 -173 47 -96 180 -101 236 -11 74
120 -68 258 -189 184z"/>
<path d="M853 1051 c-46 -29 -67 -67 -66 -117 2 -56 28 -99 73 -121 143 -68
265 112 150 222 -39 38 -111 45 -157 16z"/>
<path d="M2025 1063 c-46 -12 -95 -80 -95 -130 2 -85 71 -141 167 -134 49 3
104 74 108 141 1 26 -34 89 -60 106 -26 17 -87 26 -120 17z"/>
<path d="M346 873 c-32 -7 -85 -27 -117 -44 -57 -31 -58 -32 -45 -58 53 -101
219 -299 336 -399 86 -73 238 -182 255 -182 6 0 21 18 34 40 81 145 79 324 -6
454 -98 150 -286 228 -457 189z"/>
<path d="M2448 868 c-168 -42 -288 -168 -324 -337 -10 -51 -5 -148 12 -204 10
-36 55 -125 68 -136 29 -24 325 220 454 374 72 85 155 213 149 228 -12 31
-125 75 -220 86 -52 6 -84 3 -139 -11z"/>
<path d="M1432 814 c-155 -79 -42 -315 116 -244 47 21 70 52 79 104 7 45 -17
103 -54 130 -35 26 -100 31 -141 10z"/>
<path d="M1375 427 c-55 -19 -135 -62 -165 -89 -35 -32 -104 -118 -95 -118 5
0 1 -8 -7 -17 -8 -10 -22 -44 -31 -76 -18 -68 -17 -69 78 -86 33 -6 76 -13 95
-17 19 -3 49 -7 65 -9 48 -6 312 -6 348 -1 17 3 50 8 72 11 87 12 162 27 175
35 12 7 11 18 -3 70 -34 121 -116 216 -236 273 -55 26 -78 31 -160 34 -62 2
-110 -2 -136 -10z"/>
</g>
</svg>
